<?xml version="1.0" standalone="no"?>
<!DOCTYPE svg PUBLIC "-//W3C//DTD SVG 20010904//EN"
 "http://www.w3.org/TR/2001/REC-SVG-20010904/DTD/svg10.dtd">
<svg version="1.0" xmlns="http://www.w3.org/2000/svg"
 width="512.000000pt" height="536.000000pt" viewBox="0 0 512.000000 536.000000"
 preserveAspectRatio="xMidYMid meet">

<g transform="translate(0.000000,536.000000) scale(0.100000,-0.100000)"
fill="#000000" stroke="none">
<path d="M1860 5191 l0 -169 -97 -33 c-653 -215 -1197 -689 -1498 -1303 -123
-252 -203 -508 -242 -781 -21 -149 -24 -526 -5 -660 43 -303 119 -553 246
-810 254 -514 655 -917 1161 -1165 198 -97 317 -142 510 -190 196 -49 343 -70
545 -77 688 -23 1357 235 1852 715 229 222 385 436 523 717 166 336 247 657
262 1030 32 830 -350 1631 -1019 2136 -238 179 -529 328 -795 406 l-63 18 0
168 0 167 -690 0 -690 0 0 -169z m978 -586 c671 -95 1242 -498 1556 -1097 156
-297 230 -604 230 -953 -1 -199 -16 -327 -64 -511 -188 -731 -768 -1307 -1500
-1489 -757 -189 -1578 74 -2070 663 -630 753 -664 1805 -82 2581 73 97 256
286 352 364 289 233 635 384 1015 441 123 19 434 19 563 1z"/>
<path d="M2405 4406 c-60 -28 -97 -66 -124 -126 -20 -44 -21 -60 -21 -1072 l0
-1028 883 0 882 0 51 24 c84 39 134 122 134 221 0 31 -6 70 -14 89 -19 46 -72
104 -120 129 -41 22 -44 22 -683 25 l-643 3 0 782 c0 765 -1 783 -21 827 -41
91 -129 150 -224 150 -32 0 -68 -9 -100 -24z"/>
</g>
</svg>
